#Comment line ignore any data following # character 
#Hierarchical Translation and Rotation (.htr) file 
[Header]	
#Header keywords are followed by a single value 
FileType HTR		#Single word string
DataType HTRS		#Translation followed by rotation and scale data
FileVersion 1		#integer
NumSegments 84		#integer
NumFrames 2		#integer
DataFrameRate 30		#integer, data frame rate in this file
EulerRotationOrder ZYX
CalibrationUnits mm
RotationUnits Degrees
GlobalAxisofGravity Y
BoneLengthAxis Y
ScaleFactor 1.00
[SegmentNames&Hierarchy]
#CHILD	PARENT
MASTER GLOBAL
root MASTER
chest root
L_mid_tent01 root
R_mid_tent01 root
spine01 root
Bip01_Neck chest
L_humerus chest
R_humerus chest
weapon_bone chest
Bip01_Head Bip01_Neck
eye_left_bone Bip01_Head
eye_right_bone Bip01_Head
L_forearm L_humerus
L_front_hand L_forearm
L_weapon_bone L_forearm
L_front_hand01_01 L_front_hand
L_front_hand02_01 L_front_hand
L_front_hand03_01 L_front_hand
L_front_hand01_02 L_front_hand01_01
L_front_hand02_02 L_front_hand02_01
L_front_hand03_02 L_front_hand03_01
R_forearm R_humerus
R_front_hand R_forearm
R_weapon_bone R_forearm
R_front_hand01_01 R_front_hand
R_front_hand02_01 R_front_hand
R_front_hand03_01 R_front_hand
R_front_hand01_02 R_front_hand01_01
R_front_hand02_02 R_front_hand02_01
R_front_hand03_02 R_front_hand03_01
null_rope01_connect L_mid_tent01
Rope1_Seg01 null_rope01_connect
Rope1_Seg02 Rope1_Seg01
Rope1_Seg03 Rope1_Seg02
Rope1_Seg04 Rope1_Seg03
Rope1_Seg05 Rope1_Seg04
Rope1_Seg06 Rope1_Seg05
Rope1_Seg07 Rope1_Seg06
Rope1_Seg09 Rope1_Seg07
L_mid_hand01 Rope1_Seg09
L_mid_hand02 Rope1_Seg09
L_mid_hand03 Rope1_Seg09
null_rope02_connect R_mid_tent01
Rope2_Seg01 null_rope02_connect
Rope2_Seg02 Rope2_Seg01
Rope2_Seg03 Rope2_Seg02
Rope2_Seg04 Rope2_Seg03
Rope2_Seg05 Rope2_Seg04
Rope2_Seg06 Rope2_Seg05
Rope2_Seg07 Rope2_Seg06
Rope2_Seg09 Rope2_Seg07
R_mid_hand01 Rope2_Seg09
R_mid_hand02 Rope2_Seg09
R_mid_hand03 Rope2_Seg09
spine02 spine01
spine03 spine02
pelvis spine03
null_rope03_connect pelvis
null_rope04_connect pelvis
Rope3_Seg01 null_rope03_connect
Rope3_Seg02 Rope3_Seg01
Rope3_Seg03 Rope3_Seg02
Rope3_Seg04 Rope3_Seg03
Rope3_Seg05 Rope3_Seg04
Rope3_Seg06 Rope3_Seg05
Rope3_Seg07 Rope3_Seg06
Rope3_Seg08 Rope3_Seg07
Rope3_Seg09 Rope3_Seg08
R_rear_hand01 Rope3_Seg09
R_rear_hand02 Rope3_Seg09
R_rear_hand03 Rope3_Seg09
Rope4_Seg01 null_rope04_connect
Rope4_Seg02 Rope4_Seg01
Rope4_Seg03 Rope4_Seg02
Rope4_Seg04 Rope4_Seg03
Rope4_Seg05 Rope4_Seg04
Rope4_Seg06 Rope4_Seg05
Rope4_Seg07 Rope4_Seg06
Rope4_Seg08 Rope4_Seg07
Rope4_Seg09 Rope4_Seg08
L_rear_hand01 Rope4_Seg09
L_rear_hand02 Rope4_Seg09
L_rear_hand03 Rope4_Seg09
[BasePosition]
#SegmentName Tx, Ty, Tz, Rx, Ry, Rz, BoneLength
MASTER 0.000000 0.000000 0.000000 -90.000000 0.000000 0.000000 10.000000 
root 0.000000 0.000000 0.000000 0.000000 0.000000 0.000000 10.000000 
chest 0.000000 0.000000 0.000000 0.000000 0.000000 0.000000 10.000000 
L_mid_tent01 0.000000 0.000000 0.000000 0.000000 0.000000 0.000000 10.000000 
R_mid_tent01 0.000000 0.000000 0.000000 0.000000 0.000000 0.000000 10.000000 
spine01 0.000000 0.000000 0.000000 0.000000 0.000000 0.000000 10.000000 
Bip01_Neck 0.000000 0.000000 0.000000 0.000000 0.000000 0.000000 10.000000 
L_humerus 0.000000 0.000000 0.000000 0.000000 0.000000 0.000000 10.000000 
R_humerus 0.000000 0.000000 0.000000 0.000000 0.000000 0.000000 10.000000 
weapon_bone 0.000000 0.000000 0.000000 0.000000 0.000000 0.000000 10.000000 
Bip01_Head 0.000000 0.000000 0.000000 0.000000 0.000000 0.000000 10.000000 
eye_left_bone 0.000000 0.000000 0.000000 0.000000 0.000000 0.000000 10.000000 
eye_right_bone 0.000000 0.000000 0.000000 0.000000 0.000000 0.000000 10.000000 
L_forearm 0.000000 0.000000 0.000000 0.000000 0.000000 0.000000 10.000000 
L_front_hand 0.000000 0.000000 0.000000 0.000000 0.000000 0.000000 10.000000 
L_weapon_bone 0.000000 0.000000 0.000000 0.000000 0.000000 0.000000 10.000000 
L_front_hand01_01 0.000000 0.000000 0.000000 0.000000 0.000000 0.000000 10.000000 
L_front_hand02_01 0.000000 0.000000 0.000000 0.000000 0.000000 0.000000 10.000000 
L_front_hand03_01 0.000000 0.000000 0.000000 0.000000 0.000000 0.000000 10.000000 
L_front_hand01_02 0.000000 0.000000 0.000000 0.000000 0.000000 0.000000 10.000000 
L_front_hand02_02 0.000000 0.000000 0.000000 0.000000 0.000000 0.000000 10.000000 
L_front_hand03_02 0.000000 0.000000 0.000000 0.000000 0.000000 0.000000 10.000000 
R_forearm 0.000000 0.000000 0.000000 0.000000 0.000000 0.000000 10.000000 
R_front_hand 0.000000 0.000000 0.000000 0.000000 0.000000 0.000000 10.000000 
R_weapon_bone 0.000000 0.000000 0.000000 0.000000 0.000000 0.000000 10.000000 
R_front_hand01_01 0.000000 0.000000 0.000000 0.000000 0.000000 0.000000 10.000000 
R_front_hand02_01 0.000000 0.000000 0.000000 0.000000 0.000000 0.000000 10.000000 
R_front_hand03_01 0.000000 0.000000 0.000000 0.000000 0.000000 0.000000 10.000000 
R_front_hand01_02 0.000000 0.000000 0.000000 0.000000 0.000000 0.000000 10.000000 
R_front_hand02_02 0.000000 0.000000 0.000000 0.000000 0.000000 0.000000 10.000000 
R_front_hand03_02 0.000000 0.000000 0.000000 0.000000 0.000000 0.000000 10.000000 
null_rope01_connect 0.000000 0.000000 0.000000 0.000000 0.000000 0.000000 10.000000 
Rope1_Seg01 0.000000 0.000000 0.000000 0.000000 0.000000 0.000000 10.000000 
Rope1_Seg02 0.000000 0.000000 0.000000 0.000000 0.000000 0.000000 10.000000 
Rope1_Seg03 0.000000 0.000000 0.000000 0.000000 0.000000 0.000000 10.000000 
Rope1_Seg04 0.000000 0.000000 0.000000 0.000000 0.000000 0.000000 10.000000 
Rope1_Seg05 0.000000 0.000000 0.000000 0.000000 0.000000 0.000000 10.000000 
Rope1_Seg06 0.000000 0.000000 0.000000 0.000000 0.000000 0.000000 10.000000 
Rope1_Seg07 0.000000 0.000000 0.000000 0.000000 0.000000 0.000000 10.000000 
Rope1_Seg09 0.000000 0.000000 0.000000 0.000000 0.000000 0.000000 10.000000 
L_mid_hand01 0.000000 0.000000 0.000000 0.000000 0.000000 0.000000 10.000000 
L_mid_hand02 0.000000 0.000000 0.000000 0.000000 0.000000 0.000000 10.000000 
L_mid_hand03 0.000000 0.000000 0.000000 0.000000 0.000000 0.000000 10.000000 
null_rope02_connect 0.000000 0.000000 0.000000 0.000000 0.000000 0.000000 10.000000 
Rope2_Seg01 0.000000 0.000000 0.000000 0.000000 0.000000 0.000000 10.000000 
Rope2_Seg02 0.000000 0.000000 0.000000 0.000000 0.000000 0.000000 10.000000 
Rope2_Seg03 0.000000 0.000000 0.000000 0.000000 0.000000 0.000000 10.000000 
Rope2_Seg04 0.000000 0.000000 0.000000 0.000000 0.000000 0.000000 10.000000 
Rope2_Seg05 0.000000 0.000000 0.000000 0.000000 0.000000 0.000000 10.000000 
Rope2_Seg06 0.000000 0.000000 0.000000 0.000000 0.000000 0.000000 10.000000 
Rope2_Seg07 0.000000 0.000000 0.000000 0.000000 0.000000 0.000000 10.000000 
Rope2_Seg09 0.000000 0.000000 0.000000 0.000000 0.000000 0.000000 10.000000 
R_mid_hand01 0.000000 0.000000 0.000000 0.000000 0.000000 0.000000 10.000000 
R_mid_hand02 0.000000 0.000000 0.000000 0.000000 0.000000 0.000000 10.000000 
R_mid_hand03 0.000000 0.000000 0.000000 0.000000 0.000000 0.000000 10.000000 
spine02 0.000000 0.000000 0.000000 0.000000 0.000000 0.000000 10.000000 
spine03 0.000000 0.000000 0.000000 0.000000 0.000000 0.000000 10.000000 
pelvis 0.000000 0.000000 0.000000 0.000000 0.000000 0.000000 10.000000 
null_rope03_connect 0.000000 0.000000 0.000000 0.000000 0.000000 0.000000 10.000000 
null_rope04_connect 0.000000 0.000000 0.000000 0.000000 0.000000 0.000000 10.000000 
Rope3_Seg01 0.000000 0.000000 0.000000 0.000000 0.000000 0.000000 10.000000 
Rope3_Seg02 0.000000 0.000000 0.000000 0.000000 0.000000 0.000000 10.000000 
Rope3_Seg03 0.000000 0.000000 0.000000 0.000000 0.000000 0.000000 10.000000 
Rope3_Seg04 0.000000 0.000000 0.000000 0.000000 0.000000 0.000000 10.000000 
Rope3_Seg05 0.000000 0.000000 0.000000 0.000000 0.000000 0.000000 10.000000 
Rope3_Seg06 0.000000 0.000000 0.000000 0.000000 0.000000 0.000000 10.000000 
Rope3_Seg07 0.000000 0.000000 0.000000 0.000000 0.000000 0.000000 10.000000 
Rope3_Seg08 0.000000 0.000000 0.000000 0.000000 0.000000 0.000000 10.000000 
Rope3_Seg09 0.000000 0.000000 0.000000 0.000000 0.000000 0.000000 10.000000 
R_rear_hand01 0.000000 0.000000 0.000000 0.000000 0.000000 0.000000 10.000000 
R_rear_hand02 0.000000 0.000000 0.000000 0.000000 0.000000 0.000000 10.000000 
R_rear_hand03 0.000000 0.000000 0.000000 0.000000 0.000000 0.000000 10.000000 
Rope4_Seg01 0.000000 0.000000 0.000000 0.000000 0.000000 0.000000 10.000000 
Rope4_Seg02 0.000000 0.000000 0.000000 0.000000 0.000000 0.000000 10.000000 
Rope4_Seg03 0.000000 0.000000 0.000000 0.000000 0.000000 0.000000 10.000000 
Rope4_Seg04 0.000000 0.000000 0.000000 0.000000 0.000000 0.000000 10.000000 
Rope4_Seg05 0.000000 0.000000 0.000000 0.000000 0.000000 0.000000 10.000000 
Rope4_Seg06 0.000000 0.000000 0.000000 0.000000 0.000000 0.000000 10.000000 
Rope4_Seg07 0.000000 0.000000 0.000000 0.000000 0.000000 0.000000 10.000000 
Rope4_Seg08 0.000000 0.000000 0.000000 0.000000 0.000000 0.000000 10.000000 
Rope4_Seg09 0.000000 0.000000 0.000000 0.000000 0.000000 0.000000 10.000000 
L_rear_hand01 0.000000 0.000000 0.000000 0.000000 0.000000 0.000000 10.000000 
L_rear_hand02 0.000000 0.000000 0.000000 0.000000 0.000000 0.000000 10.000000 
L_rear_hand03 0.000000 0.000000 0.000000 0.000000 0.000000 0.000000 10.000000 
#Beginning of Data. Separated by tabs
#Fr	Tx	Ty	Tz	Rx	Ry	Rz	SF
[MASTER]
10 0.000000 0.000000 0.000000 0.001660 0.001660 0.001660 0.000000
11 0.000000 0.000000 0.000000 0.001660 0.001660 0.001660 0.000000
[root]
10 -16.502245 -199.343781 1093.534668 -85.747307 -61.785316 -93.080688 1111.678223
11 -16.502245 -199.343781 1093.534668 -85.747322 -61.785324 -93.080688 1111.678223
[chest]
10 -84.512650 -34.090519 0.000000 2.369630 -1.494983 -122.561462 91.129311
11 -84.512650 -34.090519 0.000000 2.367666 -1.484350 -122.397705 91.129311
[L_mid_tent01]
10 27.299500 22.177483 -249.917984 -16.745619 1.726939 129.294617 252.380859
11 27.299500 22.177483 -249.917984 -16.736319 1.792514 129.771149 252.380859
[R_mid_tent01]
10 23.228794 24.509907 226.238495 -175.106461 2.111249 118.229935 228.744751
11 23.228794 24.509907 226.238495 -175.116409 2.123035 118.651260 228.744751
[spine01]
10 -0.361383 -0.195265 0.000000 -0.000001 -0.000007 22.052340 0.410763
11 -0.361383 -0.195265 0.000000 -0.000001 -0.000007 22.052340 0.410763
[Bip01_Neck]
10 165.484543 71.581718 0.000119 175.896118 1.177290 24.871183 180.302734
11 165.484543 71.581718 0.000119 175.896118 1.177290 24.871183 180.302734
[L_humerus]
10 -13.983130 -135.272980 -120.471481 -91.668335 0.804969 -167.458282 181.680161
11 -13.983130 -135.272980 -120.471481 -91.668335 0.804969 -167.458282 181.680161
[R_humerus]
10 -13.983309 -135.273102 125.287651 103.000740 1.729733 -169.272232 184.909012
11 -13.983309 -135.273102 125.287651 103.000740 1.729732 -169.272232 184.909012
[weapon_bone]
10 235.964890 -300.705902 0.000000 0.000000 -89.951546 -128.212341 382.234833
11 235.964890 -300.705902 0.000000 0.000000 -89.951546 -128.212341 382.234833
[Bip01_Head]
10 102.819817 23.735489 5.410404 3.150732 3.423701 -20.839092 105.662483
11 102.819817 23.735487 5.410404 3.150732 3.423701 -20.839092 105.662483
[eye_left_bone]
10 -24.626970 125.451866 -64.772606 0.000000 -90.000000 -99.840431 143.318359
11 -24.626970 125.451866 -64.772606 0.000000 -90.000000 -99.840431 143.318359
[eye_right_bone]
10 -24.626970 125.451866 64.327362 0.000000 -89.960434 80.159386 143.117676
11 -24.626970 125.451866 64.327362 0.000000 -89.960434 80.159386 143.117676
[L_forearm]
10 322.776093 0.000000 -0.000119 0.000017 0.002347 -89.149834 322.776093
11 322.776093 0.000000 -0.000119 0.000017 0.002347 -89.149834 322.776093
[L_front_hand]
10 241.149185 -0.042021 -3.300071 -177.731750 -0.046445 -80.230522 241.171753
11 241.149185 -0.042021 -3.300071 -177.732285 -0.045517 -80.245590 241.171753
[L_weapon_bone]
10 156.183838 0.000000 0.000000 0.000014 0.000007 0.000001 156.183838
11 156.183838 0.000000 0.000000 0.000014 0.000007 0.000001 156.183838
[L_front_hand01_01]
10 86.095154 20.947098 -0.655860 0.405585 -0.442306 -4.620490 88.609184
11 86.095154 20.947098 -0.655860 0.405585 -0.442306 -4.620490 88.609184
[L_front_hand02_01]
10 86.935165 -11.437475 24.513514 116.959450 3.630817 1.495453 91.046425
11 86.935165 -11.437475 24.513514 116.959450 3.630817 1.495453 91.046425
[L_front_hand03_01]
10 86.637497 -14.123976 -20.424902 -118.420097 -4.656303 -0.152527 90.126129
11 86.637497 -14.123976 -20.424902 -118.420097 -4.656303 -0.152527 90.126129
[L_front_hand01_02]
10 71.020905 -0.000179 0.000030 0.000004 -0.000005 -8.379269 71.020905
11 71.020905 -0.000179 0.000030 0.000004 -0.000005 -8.379269 71.020905
[L_front_hand02_02]
10 71.020927 -0.000119 0.000060 -0.000005 -0.000004 -8.379259 71.020927
11 71.020927 -0.000119 0.000060 -0.000005 -0.000004 -8.379259 71.020927
[L_front_hand03_02]
10 71.020905 -0.000060 0.000060 0.000015 -0.000040 -8.379267 71.020905
11 71.020905 -0.000060 0.000060 0.000015 -0.000040 -8.379267 71.020905
[R_forearm]
10 322.776428 -0.000060 0.000030 0.210760 -0.039703 -80.510880 322.776428
11 322.776428 -0.000060 0.000030 0.210742 -0.039803 -80.456894 322.776428
[R_front_hand]
10 238.847015 -0.006795 2.210259 -1.671093 -0.429349 -93.128006 238.857239
11 238.847015 -0.006795 2.210259 -1.671017 -0.429647 -93.148445 238.857239
[R_weapon_bone]
10 155.664093 0.002503 -0.000030 0.003487 0.001180 -90.988930 155.664078
11 155.664093 0.002503 -0.000030 0.003487 0.001180 -90.988930 155.664078
[R_front_hand01_01]
10 87.624611 14.231146 22.918642 -116.960213 3.496675 -1.324139 91.683487
11 87.624611 14.231146 22.918642 -116.960213 3.496675 -1.324139 91.683487
[R_front_hand02_01]
10 89.356956 14.367283 -19.491137 118.419647 -4.257089 0.609827 92.579636
11 89.356956 14.367283 -19.491137 118.419647 -4.257089 0.609827 92.579636
[R_front_hand03_01]
10 87.286232 -22.307278 -0.143439 -0.387970 -0.231462 4.232001 90.091743
11 87.286232 -22.307278 -0.143439 -0.387970 -0.231462 4.232001 90.091743
[R_front_hand01_02]
10 71.020905 0.000060 0.000119 -0.000005 -0.000020 8.379271 71.020905
11 71.020905 0.000060 0.000119 -0.000005 -0.000020 8.379271 71.020905
[R_front_hand02_02]
10 71.020844 -0.000030 -0.000119 0.000000 -0.000021 8.379271 71.020836
11 71.020844 -0.000030 -0.000119 0.000000 -0.000021 8.379271 71.020836
[R_front_hand03_02]
10 71.020905 0.000000 0.000030 -0.000001 -0.000020 8.379275 71.020905
11 71.020905 0.000000 0.000030 -0.000001 -0.000020 8.379275 71.020905
[null_rope01_connect]
10 328.732483 0.000000 -0.000238 111.241203 -73.404076 -88.641502 328.732483
11 328.732483 0.000000 -0.000238 110.994667 -73.393478 -88.880997 328.732483
[Rope1_Seg01]
10 0.000000 0.000000 0.000000 75.803589 19.949772 82.708923 0.000000
11 0.000000 0.000000 0.000000 75.886513 18.804173 82.349823 0.000000
[Rope1_Seg02]
10 139.999863 -0.000179 0.000000 59.705875 -11.976767 45.569935 139.999863
11 139.999863 -0.000179 0.000000 60.639259 -11.481506 44.711315 139.999863
[Rope1_Seg03]
10 139.999924 0.000060 -0.000060 56.952896 14.033981 18.358507 139.999924
11 139.999924 0.000060 -0.000060 58.159916 14.838504 19.025406 139.999924
[Rope1_Seg04]
10 139.999924 -0.000060 -0.000119 23.592222 46.104923 -3.117031 139.999924
11 139.999924 -0.000060 -0.000119 21.337614 45.661728 -4.805272 139.999924
[Rope1_Seg05]
10 139.999832 0.000119 -0.000060 -0.137100 18.838181 -10.548704 139.999832
11 139.999832 0.000119 -0.000060 -0.176281 18.363424 -10.315891 139.999832
[Rope1_Seg06]
10 139.999954 0.000119 -0.000060 -0.414655 7.980309 -4.614387 139.999954
11 139.999954 0.000119 -0.000060 -0.405377 7.742647 -4.473337 139.999954
[Rope1_Seg07]
10 139.999985 0.000060 0.000000 -0.117067 2.112471 -1.207474 139.999985
11 139.999985 0.000060 0.000000 -0.112453 2.008683 -1.147903 139.999985
[Rope1_Seg09]
10 121.602913 0.000119 -0.000089 -89.793175 -1.359789 0.847147 121.602913
11 121.602913 0.000119 -0.000089 -89.793175 -1.359789 0.847147 121.602913
[L_mid_hand01]
10 103.859421 1.038730 8.195221 104.352036 0.341479 -0.444583 104.187431
11 103.859421 1.038730 8.195221 104.352043 0.341479 -0.444583 104.187431
[L_mid_hand02]
10 105.572853 -4.139662 -10.864139 -135.608444 3.905687 -3.381056 106.211075
11 105.572853 -4.139662 -10.864139 -135.608444 3.905687 -3.381056 106.211075
[L_mid_hand03]
10 104.641464 17.579376 -3.913581 -18.761518 -0.324361 2.942912 106.179977
11 104.641464 17.579376 -3.913581 -18.761515 -0.324361 2.942912 106.179977
[null_rope02_connect]
10 328.732849 0.000179 -0.000119 122.943649 84.544182 -90.660782 328.732849
11 328.732849 0.000179 -0.000119 122.390335 84.571655 -90.793312 328.732849
[Rope2_Seg01]
10 0.000076 0.000110 0.000153 -6.061454 51.167770 106.427711 0.000203
11 0.000076 0.000110 0.000153 -5.972097 51.055946 106.542641 0.000203
[Rope2_Seg02]
10 139.999741 -0.000060 -0.000119 -17.682171 -55.991570 -37.645851 139.999756
11 139.999741 -0.000060 -0.000119 -17.791937 -56.662071 -38.893166 139.999756
[Rope2_Seg03]
10 140.000107 0.000030 0.000000 -25.360319 -14.553741 -27.692484 140.000107
11 140.000107 0.000030 0.000000 -24.813929 -13.805704 -27.171984 140.000107
[Rope2_Seg04]
10 139.999802 0.000000 -0.000060 -20.733143 -11.813756 -32.689529 139.999802
11 139.999802 0.000000 -0.000060 -20.790829 -11.841388 -33.079929 139.999802
[Rope2_Seg05]
10 139.999985 -0.000060 0.000119 -11.260958 1.575074 -31.625948 139.999985
11 139.999985 -0.000060 0.000119 -11.019004 1.760384 -31.252708 139.999985
[Rope2_Seg06]
10 139.999893 -0.000030 -0.000119 -1.910840 3.358629 -12.469687 139.999893
11 139.999893 -0.000030 -0.000119 -1.860436 3.328816 -12.313228 139.999893
[Rope2_Seg07]
10 139.999893 0.000060 -0.000060 -0.294744 1.443021 -4.796221 139.999893
11 139.999893 0.000060 -0.000060 -0.284168 1.415596 -4.701944 139.999893
[Rope2_Seg09]
10 121.338966 0.000089 -0.000060 33.793236 -1.359788 -0.847141 121.338966
11 121.338966 0.000089 -0.000060 33.793236 -1.359788 -0.847141 121.338966
[R_mid_hand01]
10 104.680779 11.144459 -10.335981 -47.384258 2.963522 5.452604 105.778534
11 104.680779 11.144459 -10.335981 -47.384258 2.963522 5.452604 105.778534
[R_mid_hand02]
10 104.070427 2.443552 8.231699 75.626297 -2.250001 1.111093 104.424065
11 104.070427 2.443552 8.231699 75.626297 -2.250001 1.111093 104.424065
[R_mid_hand03]
10 106.028137 -11.221827 -5.996406 -164.381912 2.495983 -6.140520 106.788818
11 106.028137 -11.221827 -5.996406 -164.381927 2.495983 -6.140520 106.788818
[spine02]
10 129.756927 0.001550 0.000119 -3.602962 -2.891450 48.329029 129.756927
11 129.756927 0.001550 0.000119 -3.614434 -2.878978 48.556728 129.756927
[spine03]
10 79.115631 0.000000 -0.000119 5.689013 8.651418 53.078758 79.115631
11 79.115631 0.000000 -0.000119 5.711770 8.656828 53.305897 79.115631
[pelvis]
10 169.435242 0.051022 0.000000 -7.744237 -2.940674 14.953719 169.435257
11 169.435242 0.051022 0.000000 -7.766612 -2.946471 14.999915 169.435257
[null_rope03_connect]
10 -1.257226 -2.466202 137.391083 147.408218 -84.079109 -133.717468 137.418976
11 -1.257226 -2.466202 137.391083 147.068283 -84.067406 -133.892258 137.418976
[null_rope04_connect]
10 -1.259640 -2.480268 -137.844437 147.408218 -84.079109 -133.717468 137.872513
11 -1.259640 -2.480268 -137.844437 147.068283 -84.067406 -133.892258 137.872513
[Rope3_Seg01]
10 0.000010 0.000038 -0.000114 -170.578232 74.839958 -106.342216 0.000121
11 0.000010 0.000038 -0.000114 -170.190598 74.588699 -106.056091 0.000121
[Rope3_Seg02]
10 139.999924 -0.000119 0.000060 -10.450764 -19.208706 11.152925 139.999924
11 139.999924 -0.000119 0.000060 -10.601370 -19.381353 11.319928 139.999924
[Rope3_Seg03]
10 139.999924 -0.000119 0.000119 -19.817337 -45.142330 22.563049 139.999924
11 139.999924 -0.000119 0.000119 -20.031839 -45.423595 22.812586 139.999924
[Rope3_Seg04]
10 139.999924 0.000119 0.000000 -0.597691 -23.562603 4.568336 139.999924
11 139.999924 0.000119 0.000000 -0.554245 -23.427637 4.519590 139.999924
[Rope3_Seg05]
10 139.999924 -0.000238 0.000060 8.955817 -60.874798 15.468515 139.999924
11 139.999924 -0.000238 0.000060 8.963646 -61.246552 15.728119 139.999924
[Rope3_Seg06]
10 139.999893 -0.000119 -0.000060 11.565180 -42.577873 27.276991 139.999893
11 139.999893 -0.000119 -0.000060 11.555309 -42.101189 27.101536 139.999893
[Rope3_Seg07]
10 139.999771 0.000060 -0.000119 2.959684 -5.204517 6.040846 139.999771
11 139.999771 0.000060 -0.000119 2.946162 -5.173142 6.009112 139.999771
[Rope3_Seg08]
10 139.999985 -0.000060 0.000000 1.482129 -1.958637 2.541112 139.999985
11 139.999985 -0.000060 0.000000 1.477562 -1.949206 2.530703 139.999985
[Rope3_Seg09]
10 90.185997 -0.000179 -0.000060 89.793228 -1.359877 -0.847183 90.185997
11 90.185997 -0.000179 -0.000060 89.793228 -1.359877 -0.847183 90.185997
[R_rear_hand01]
10 103.366196 -6.073594 -10.757982 -156.049316 6.070419 -2.795869 104.101845
11 103.366196 -6.073594 -10.757982 -156.049316 6.070419 -2.795869 104.101845
[R_rear_hand02]
10 100.509819 12.039542 -7.992327 -38.708424 1.958050 5.461185 101.543350
11 100.509819 12.039542 -7.992327 -38.708435 1.958051 5.461186 101.543350
[R_rear_hand03]
10 101.539970 5.215704 5.435467 84.307625 -2.361032 4.099037 101.819031
11 101.539970 5.215704 5.435467 84.307625 -2.361032 4.099037 101.819031
[Rope4_Seg01]
10 0.000012 0.000063 -0.000166 85.269234 78.120995 -76.163567 0.000178
11 0.000011 0.000061 -0.000168 85.050636 77.905258 -76.303658 0.000179
[Rope4_Seg02]
10 139.999985 0.000060 0.000119 4.879179 5.480442 -14.314397 139.999985
11 139.999985 0.000060 0.000119 4.934224 5.554015 -14.449224 139.999985
[Rope4_Seg03]
10 139.999924 0.000000 -0.000238 4.980389 11.265452 -47.110485 139.999924
11 139.999924 0.000000 -0.000238 4.950154 11.358842 -47.591816 139.999924
[Rope4_Seg04]
10 139.999985 0.000000 0.000119 -2.852085 3.186607 -37.229851 139.999985
11 139.999985 0.000000 0.000119 -2.874173 3.141716 -36.957710 139.999985
[Rope4_Seg05]
10 139.999802 -0.000060 -0.000119 -8.835217 6.040595 -30.682604 139.999802
11 139.999802 -0.000060 -0.000119 -8.972174 6.110492 -30.946318 139.999802
[Rope4_Seg06]
10 139.999924 0.000000 0.000060 -22.256527 14.601003 -48.720898 139.999924
11 139.999924 0.000000 0.000060 -22.209169 14.657614 -48.542965 139.999924
[Rope4_Seg07]
10 139.999802 0.000000 0.000000 -6.023738 10.221738 -15.389803 139.999802
11 139.999802 0.000000 0.000000 -5.941206 10.142258 -15.219686 139.999802
[Rope4_Seg08]
10 139.999924 0.000000 0.000119 -2.534771 2.871127 -3.569220 139.999924
11 139.999924 0.000000 0.000119 -2.515584 2.829952 -3.514976 139.999924
[Rope4_Seg09]
10 90.185791 0.000060 0.000060 -135.617828 2.228885 0.850567 90.185791
11 90.185791 0.000060 0.000060 -135.617828 2.228885 0.850567 90.185791
[L_rear_hand01]
10 101.696655 -8.392275 -7.654577 -38.746338 0.246096 177.290207 102.329041
11 101.696655 -8.392275 -7.654577 -38.746338 0.246096 177.290207 102.329041
[L_rear_hand02]
10 102.726799 -1.568258 5.773216 84.314880 -1.139137 176.250763 102.900848
11 102.726799 -1.568258 5.773216 84.314880 -1.139137 176.250763 102.900848
[L_rear_hand03]
10 104.552910 9.721220 -10.420293 -155.747955 -4.630845 179.564758 105.519653
11 104.552910 9.721220 -10.420293 -155.747955 -4.630845 179.564758 105.519653
